<?xml version="1.0" standalone="no"?><!DOCTYPE svg PUBLIC "-//W3C//DTD SVG 1.1//EN" "http://www.w3.org/Graphics/SVG/1.1/DTD/svg11.dtd"><svg t="1610962151449" class="icon" viewBox="0 0 1024 1024" version="1.1" xmlns="http://www.w3.org/2000/svg" p-id="2903" xmlns:xlink="http://www.w3.org/1999/xlink" width="200" height="200"><defs><style type="text/css"></style></defs><path d="M64 512a448 448 0 1 0 896 0A448 448 0 0 0 64 512z" fill="#EFA911" p-id="2904"></path><path d="M713.088 353.28a162.24 162.24 0 1 1 0 324.48 162.24 162.24 0 0 1 0-324.48z m-38.72 84.096h-21.376l44.16 77.696h-32v10.88h38.016v21.12h-38.08v10.88h38.08v33.92h19.072v-33.92h38.272v-10.88h-38.272v-21.12h38.272v-10.88h-32.256l44.16-77.696h-21.44l-38.272 71.04-38.336-71.04z" fill="#FFFFFF" p-id="2905"></path><path d="M360.32 282.688a232.832 232.832 0 1 0 0 465.664 232.832 232.832 0 0 0 0-465.664z m0 21.184a211.648 211.648 0 1 1 0 423.296 211.648 211.648 0 0 1 0-423.296z" fill="#FFD05D" p-id="2906"></path><path d="M360.32 303.872a211.648 211.648 0 1 1 0 423.296 211.648 211.648 0 0 1 0-423.296z m-50.432 109.76h-27.968l57.6 101.312h-41.792v14.08h49.664v27.648h-49.664v14.08h49.664v44.352h24.832V570.88h49.92v-14.08h-49.92v-27.712h49.92v-14.08H380.16l57.6-101.312h-27.968l-49.92 92.544-49.984-92.544z" fill="#FFFFFF" p-id="2907"></path><path d="M684.544 668.992L577.28 561.728l-54.912 54.848 11.84 11.84H423.808v77.568h113.92l-15.36 15.36 54.912 54.912 107.264-107.264zM577.28 591.68l77.312 77.312L577.28 746.24l-24.96-24.96 36.48-36.48H444.992v-35.264h140.288l-32.96-33.024 24.96-24.96z" fill="#FFD05D" p-id="2908"></path><path d="M577.28 591.68l77.312 77.312L577.28 746.24l-24.96-24.96 36.48-36.48H444.992v-35.264h140.288l-32.96-33.024 24.96-24.96z" fill="#FFFFFF" p-id="2909"></path></svg>