<?xml version="1.0" encoding="UTF-8"?>
<svg width="14px" height="12px" viewBox="0 0 14 12" version="1.1" xmlns="http://www.w3.org/2000/svg" xmlns:xlink="http://www.w3.org/1999/xlink">
    <title>icon/通用/圆/审核</title>
    <defs>
        <filter id="filter-1">
            <feColorMatrix in="SourceGraphic" type="matrix" values="0 0 0 0 0.098039 0 0 0 0 0.537255 0 0 0 0 0.980392 0 0 0 1.000000 0"></feColorMatrix>
        </filter>
    </defs>
    <g id="订单管理-" stroke="none" stroke-width="1" fill="none" fill-rule="evenodd">
        <g id="交易流水" transform="translate(-466.000000, -226.000000)">
            <g id="编组-5" transform="translate(328.000000, 206.000000)">
                <g id="icon/通用/手续费" transform="translate(137.000000, 18.000000)">
                    <g filter="url(#filter-1)" id="编组备份">
                        <g transform="translate(1.000000, 2.000000)">
                            <path d="M13.4767031,6.69677311 C13.2621883,6.39578725 12.77662,6.14468854 11.79218,6.76827804 C11.8836398,6.33093394 11.5593733,6.05988037 11.176905,6.05988037 C10.8360094,6.05988037 10.440238,6.15466597 10.1259489,6.49722447 C9.67363863,5.85866881 9.20636222,5.93516246 8.30174172,6.5371342 C7.95585741,6.76661513 7.65154574,6.96283797 7.42372771,7.09919621 C7.36386312,7.13578012 7.31397595,7.16404951 7.26575171,7.1923189 C7.35554859,7.21061086 7.44534548,7.22890282 7.54345689,7.22890282 C8.81557947,7.22890282 9.81997429,7.22890282 9.81997429,8.40956561 C9.81997429,9.31751192 8.83553434,9.57858806 8.31338207,9.59022839 L5.9570452,9.59022839 C4.98590848,9.59022839 4.03638953,8.50601411 4.03638955,8.50601411 C4.03638956,8.50601411 5.22037815,8.96497599 6.02023561,8.96497599 L8.14542862,9.05310997 C8.14875443,9.05310997 9.10159919,9.06641321 9.12487986,8.39626236 C9.14649762,7.80426806 8.74740035,7.73941474 7.54345689,7.72777441 C6.58728633,7.71779698 5.62113833,7.21559958 5.62113833,7.21559958 C5.62113833,7.21559958 4.65332742,6.45897766 4.35566737,6.25942901 C3.65059551,5.7888268 3.0901964,5.34150527 1.85964647,5.86033172 C1.40401041,6.05156583 0.489412479,6.28769839 0.25161701,6.74167155 C-0.0942673047,7.40184497 -0.0493688535,8.32642033 0.211707275,9.00488571 C0.329773555,9.3125232 0.501052809,9.69166561 0.750488607,9.90119169 C1.06311481,10.1655936 1.49048148,10.1838856 1.84800613,10.0475274 C2.26872118,9.88622554 2.59963934,9.94442723 3.00871405,10.1689194 C3.56246153,10.4732311 5.26361369,11.4194243 5.68931744,11.6405907 C6.99636104,12.319056 8.08223821,11.7187472 8.71414225,11.3279645 C9.25292359,10.9970463 11.4263409,9.61018324 12.9612025,8.2848477 C13.6064097,7.70283083 13.7610599,7.09420749 13.4767031,6.69677311 Z" id="路径" fill="#000000" fill-rule="nonzero"></path>
                            <path d="M6.51245559,0.00690495312 C4.80964053,0.00690495312 3.431092,1.38711638 3.431092,3.08993144 C3.431092,4.79274651 4.81130342,6.17129502 6.51411849,6.17129502 C8.21693355,6.17129502 9.59548208,4.7910836 9.59548208,3.08826853 C9.59548208,1.38545347 8.21527066,0.00690495312 6.51245559,0.00690495312 Z M7.92592512,3.03671847 C7.86606054,3.13649279 7.75630878,3.19469447 7.64156831,3.18970576 L6.8267447,3.18970576 L6.8267447,3.50399487 L7.42705353,3.50399487 C7.54345689,3.49568034 7.65653446,3.55388202 7.71639904,3.65531925 C7.77792654,3.75509358 7.77792654,3.88147438 7.71639904,3.9812487 C7.65487155,4.08102302 7.54345689,4.1392247 7.42705353,4.13257309 L6.8267447,4.13257309 L6.8267447,4.61481564 C6.8267447,4.78775779 6.68539774,4.92910474 6.51245559,4.92910474 C6.33951344,4.92910474 6.19816649,4.78775779 6.19816647,4.61481564 L6.19816647,4.13257309 L5.56958827,4.13257309 C5.4531849,4.14088761 5.34010734,4.08268593 5.28024273,3.9812487 C5.21871524,3.88147438 5.21871524,3.75509358 5.28024273,3.65531925 C5.34177023,3.55554493 5.45318488,3.49734325 5.56958827,3.50399487 L6.19816647,3.50399487 L6.19816647,3.18970576 L5.38500577,3.18970576 C5.2686024,3.19469448 5.16051356,3.13649279 5.10064896,3.03671847 C5.04078437,2.93694414 5.04078437,2.81388915 5.10064896,2.71411484 C5.16051354,2.61434052 5.2702653,2.55613884 5.38500577,2.56112754 L5.75250785,2.56112754 L5.16716517,1.97578486 C5.0507618,1.85106696 5.05408761,1.65816994 5.1738168,1.53844076 C5.29354599,1.41871157 5.4881059,1.41538577 5.6111609,1.53178915 L6.51079268,2.43142093 L7.41042446,1.53178915 C7.53347946,1.40873415 7.73302811,1.40873415 7.8560831,1.53178915 C7.97747519,1.65484415 7.97747519,1.85272988 7.8560831,1.97578486 L7.26907751,2.56112754 L7.6399054,2.56112754 C7.75630877,2.55613883 7.86439761,2.61434052 7.92426221,2.71411484 C7.98578971,2.81388916 7.98578971,2.93694416 7.92592512,3.03671847 L7.92592512,3.03671847 Z" id="形状" fill="#000000" fill-rule="nonzero"></path>
                        </g>
                    </g>
                </g>
            </g>
        </g>
    </g>
</svg>