<?xml version="1.0" encoding="UTF-8"?>
<svg width="14px" height="14px" viewBox="0 0 14 14" version="1.1" xmlns="http://www.w3.org/2000/svg" xmlns:xlink="http://www.w3.org/1999/xlink">
    <title>icon/通用/圆/审核</title>
    <defs>
        <filter id="filter-1">
            <feColorMatrix in="SourceGraphic" type="matrix" values="0 0 0 0 0.960784 0 0 0 0 0.129412 0 0 0 0 0.188235 0 0 0 1.000000 0"></feColorMatrix>
        </filter>
    </defs>
    <g id="订单管理" stroke="none" stroke-width="1" fill="none" fill-rule="evenodd">
        <g transform="translate(-1018.000000, -107.000000)" id="编组-5备份">
            <g transform="translate(884.000000, 88.000000)">
                <g id="icon/通用/退款" transform="translate(133.000000, 18.000000)">
                    <g filter="url(#filter-1)" id="编组">
                        <g transform="translate(1.000000, 1.000000)">
                            <path d="M6.7359375,2.3328125 C4.0609375,2.3328125 1.8921875,4.421875 1.8921875,7 C1.8921875,9.578125 4.059375,11.6671875 6.7359375,11.6671875 C9.4109375,11.6671875 11.5796875,9.578125 11.5796875,7 C11.578125,4.4234375 9.409375,2.3328125 6.7359375,2.3328125 Z M8.6296875,7.271875 C8.8203125,7.271875 8.975,7.4203125 8.975,7.6046875 C8.975,7.7890625 8.8203125,7.9375 8.6296875,7.9375 L7.0796875,7.9375 L7.0796875,9.5859375 C7.0796875,9.76875 6.925,9.9171875 6.734375,9.9171875 C6.5453125,9.9171875 6.3890625,9.76875 6.3890625,9.5859375 L6.3890625,7.9359375 L4.8390625,7.9359375 C4.6484375,7.9359375 4.49375,7.7875 4.49375,7.603125 C4.49375,7.41875 4.6484375,7.2703125 4.8390625,7.2703125 L6.390625,7.2703125 L6.390625,6.4890625 L4.840625,6.4890625 C4.65,6.4890625 4.4953125,6.340625 4.4953125,6.15625 C4.4953125,5.9734375 4.65,5.825 4.840625,5.825 L6.390625,5.825 L6.390625,5.7359375 L5.284375,4.6515625 C5.284375,4.6515625 5.2828125,4.6515625 5.2828125,4.65 C5.2828125,4.65 5.2828125,4.6484375 5.28125,4.6484375 L5.2734375,4.640625 L5.275,4.6390625 C5.1515625,4.5078125 5.1546875,4.30625 5.2875,4.18125 C5.4203125,4.05625 5.628125,4.0578125 5.7625,4.1765625 L5.7640625,4.175 L5.7734375,4.184375 C5.7734375,4.184375 5.775,4.184375 5.775,4.1859375 C5.775,4.1859375 5.775,4.1875 5.7765625,4.1875 L6.728125,5.121875 L7.6859375,4.18125 C7.81875,4.05 8.0375,4.0484375 8.1734375,4.1765625 C8.309375,4.3046875 8.3109375,4.515625 8.178125,4.646875 L7.0796875,5.7234375 L7.0796875,5.825 L8.6296875,5.825 C8.8203125,5.825 8.975,5.9734375 8.975,6.15625 C8.975,6.340625 8.8203125,6.4890625 8.6296875,6.4890625 L7.0796875,6.4890625 L7.0796875,7.2703125 L8.6296875,7.271875 Z M6.7359375,0 C4.334375,0 2.209375,1.125 0.8859375,2.8546875 L0.446875,2.609375 L0.44375,2.6109375 C0.3015625,2.5390625 0.1234375,2.5859375 0.0421875,2.721875 C0.015625,2.765625 0.0078125,2.8125 0.00625,2.859375 L-1.11022302e-16,2.8625 L0.1625,4.44375 L0.1703125,4.4484375 C0.178125,4.540625 0.2265625,4.6265625 0.315625,4.6765625 C0.4046875,4.7265625 0.50625,4.721875 0.5921875,4.6828125 L0.6,4.6875 L2.0734375,4.0453125 L2.0734375,4.0390625 C2.1265625,4.0140625 2.175,3.9796875 2.20625,3.928125 C2.284375,3.796875 2.2421875,3.634375 2.1171875,3.546875 L2.1171875,3.540625 L1.6828125,3.296875 C2.84375,1.828125 4.671875,0.875 6.7359375,0.875 C10.246875,0.875 13.0921875,3.6171875 13.0921875,7 C13.0921875,10.3828125 10.246875,13.125 6.7359375,13.125 C4.3203125,13.125 2.2203125,11.828125 1.1453125,9.9171875 L0.31875,10.275 C1.5375,12.4890625 3.9515625,14 6.7359375,14 C10.746875,14 14,10.865625 14,7 C14,3.134375 10.746875,0 6.7359375,0 Z" id="形状" fill="#000000" fill-rule="nonzero"></path>
                        </g>
                    </g>
                </g>
            </g>
        </g>
    </g>
</svg>