<?xml version="1.0" encoding="UTF-8"?>
<svg width="14px" height="14px" viewBox="0 0 14 14" version="1.1" xmlns="http://www.w3.org/2000/svg" xmlns:xlink="http://www.w3.org/1999/xlink">
    <title>icon/通用/圆/说明</title>
    <g id="财务管理" stroke="none" stroke-width="1" fill="none" fill-rule="evenodd">
        <g id="佣金结算" transform="translate(-1100.000000, -452.000000)" fill="#606266">
            <g id="编组备份-7" transform="translate(884.000000, 433.000000)">
                <g id="icon/通用/圆/说明" transform="translate(215.000000, 18.000000)">
                    <path d="M8,1 C11.8659932,1 15,4.13400675 15,8 C15,11.8659932 11.8659932,15 8,15 C4.13400675,15 1,11.8659932 1,8 C1,4.13400675 4.13400675,1 8,1 Z M8,2 C4.6862915,2 2,4.6862915 2,8 C2,11.3137085 4.6862915,14 8,14 C11.3137085,14 14,11.3137085 14,8 C14,4.6862915 11.3137085,2 8,2 Z M7,6 L8,6 C8.27614237,6 8.5,6.22385763 8.5,6.5 L8.5,10 L9,10 C9.27614237,10 9.5,10.2238576 9.5,10.5 C9.5,10.7761424 9.27614237,11 9,11 L7,11 C6.72385763,11 6.5,10.7761424 6.5,10.5 C6.5,10.2238576 6.72385763,10 7,10 L7.5,10 L7.5,7 L7,7 C6.72385763,7 6.5,6.77614237 6.5,6.5 C6.5,6.22385763 6.72385763,6 7,6 Z M8,4 C8.27614237,4 8.5,4.22385763 8.5,4.5 C8.5,4.77614237 8.27614237,5 8,5 C7.72385763,5 7.5,4.77614237 7.5,4.5 C7.5,4.22385763 7.72385763,4 8,4 Z" id="形状结合"></path>
                </g>
            </g>
        </g>
    </g>
</svg>